<svg width="56" height="43" viewBox="0 0 56 43" fill="none" xmlns="http://www.w3.org/2000/svg">
<path fill-rule="evenodd" clip-rule="evenodd" d="M16.5427 5.06519C15.084 5.06519 13.6851 5.49806 12.6536 6.26859C11.6222 7.03912 11.0427 8.08419 11.0427 9.17388V33.8261C11.0427 34.9158 11.6222 35.9608 12.6536 36.7313C13.6851 37.5019 15.084 37.9348 16.5427 37.9348H38.5427C40.0014 37.9348 41.4004 37.5019 42.4318 36.7313C43.4633 35.9608 44.0427 34.9158 44.0427 33.8261V16.1874C44.0424 15.0978 43.4627 14.0529 42.4312 13.2826L33.0427 6.26903C32.0115 5.49845 30.6128 5.06542 29.1542 5.06519H16.5427ZM30.2927 17.3913C30.2927 16.8464 30.003 16.3239 29.4873 15.9386C28.9715 15.5534 28.2721 15.3369 27.5427 15.3369C26.8134 15.3369 26.1139 15.5534 25.5982 15.9386C25.0825 16.3239 24.7927 16.8464 24.7927 17.3913V24.7582L21.237 22.1019C20.9833 21.9057 20.6798 21.7492 20.3443 21.6415C20.0088 21.5338 19.648 21.4772 19.2828 21.4748C18.9177 21.4724 18.5556 21.5244 18.2176 21.6277C17.8796 21.731 17.5726 21.8835 17.3144 22.0764C17.0562 22.2693 16.852 22.4987 16.7137 22.7512C16.5754 23.0036 16.5059 23.2741 16.509 23.5469C16.5122 23.8197 16.5881 24.0893 16.7322 24.3399C16.8763 24.5905 17.0858 24.8172 17.3485 25.0067L25.5985 31.1698C26.1142 31.5549 26.8135 31.7713 27.5427 31.7713C28.2719 31.7713 28.9713 31.5549 29.487 31.1698L37.737 25.0067C38.2379 24.6193 38.5151 24.1004 38.5088 23.5617C38.5026 23.0231 38.2133 22.5078 37.7035 22.1269C37.1936 21.746 36.5039 21.53 35.7828 21.5253C35.0618 21.5206 34.3671 21.7277 33.8485 22.1019L30.2927 24.7582V17.3913Z" fill="#0F58EF"/>
</svg>
