<svg width="51" height="45" viewBox="0 0 51 45" fill="none" xmlns="http://www.w3.org/2000/svg">
<rect x="0.550537" width="50" height="45" rx="8" fill="white"/>
<rect x="9.55054" y="6.58533" width="30" height="32.9268" rx="15" fill="#0F58EF"/>
<path d="M35.8005 35.3963L28.3005 27.1646M30.8005 20.3048C30.8005 21.566 30.5742 22.8148 30.1345 23.98C29.6948 25.1452 29.0502 26.2039 28.2377 27.0956C27.4252 27.9874 26.4606 28.6948 25.399 29.1775C24.3374 29.6601 23.1996 29.9085 22.0505 29.9085C20.9015 29.9085 19.7637 29.6601 18.7021 29.1775C17.6405 28.6948 16.6759 27.9874 15.8634 27.0956C15.0508 26.2039 14.4063 25.1452 13.9666 23.98C13.5269 22.8148 13.3005 21.566 13.3005 20.3048C13.3005 17.7578 14.2224 15.3151 15.8634 13.514C17.5043 11.713 19.7299 10.7012 22.0505 10.7012C24.3712 10.7012 26.5968 11.713 28.2377 13.514C29.8787 15.3151 30.8005 17.7578 30.8005 20.3048Z" stroke="#F1F1F1" stroke-width="2" stroke-linecap="round" stroke-linejoin="round"/>
</svg>
